<?xml version="1.0" encoding="iso-8859-1"?>
<!-- Generator: Adobe Illustrator 19.0.0, SVG Export Plug-In . SVG Version: 6.00 Build 0)  -->
<svg xmlns="http://www.w3.org/2000/svg" xmlns:xlink="http://www.w3.org/1999/xlink" version="1.1" id="Capa_1" x="0px" y="0px" viewBox="0 0 512 512" style="enable-background:new 0 0 512 512;" xml:space="preserve" width="512px" height="512px">
<g>
	<g>
		<rect x="376" y="181" width="30" height="120" fill="#FFFFFF"/>
	</g>
</g>
<g>
	<g>
		<path d="M406,151V91H106v300h300v-60h-60V151H406z M211,316c-41.353,0-75-33.647-75-75c0-41.353,33.647-75,75-75    c41.353,0,75,33.647,75,75C286,282.353,252.353,316,211,316z" fill="#FFFFFF"/>
	</g>
</g>
<g>
	<g>
		<path d="M211,196c-24.814,0-45,20.186-45,45c0,19.53,12.578,36.024,30,42.237V256h30v27.237c17.422-6.213,30-22.707,30-42.237    C256,216.186,235.814,196,211,196z" fill="#FFFFFF"/>
	</g>
</g>
<g>
	<g>
		<rect x="16" y="121" width="60" height="60" fill="#FFFFFF"/>
	</g>
</g>
<g>
	<g>
		<polygon points="16,0 16,91 76,91 76,61 436,61 436,421 76,421 76,391 16,391 16,482 76,482 76,512 166,512 166,482 346,482     346,512 436,512 436,482 496,482 496,0   " fill="#FFFFFF"/>
	</g>
</g>
<g>
	<g>
		<rect x="16" y="301" width="60" height="60" fill="#FFFFFF"/>
	</g>
</g>
<g>
	<g>
		<rect x="16" y="211" width="60" height="60" fill="#FFFFFF"/>
	</g>
</g>
<g>
</g>
<g>
</g>
<g>
</g>
<g>
</g>
<g>
</g>
<g>
</g>
<g>
</g>
<g>
</g>
<g>
</g>
<g>
</g>
<g>
</g>
<g>
</g>
<g>
</g>
<g>
</g>
<g>
</g>
</svg>
