<?xml version="1.0" encoding="UTF-8" standalone="no"?>
<!-- Created with Inkscape (http://www.inkscape.org/) -->

<svg
   xmlns:dc="http://purl.org/dc/elements/1.1/"
   xmlns:cc="http://creativecommons.org/ns#"
   xmlns:rdf="http://www.w3.org/1999/02/22-rdf-syntax-ns#"
   xmlns:svg="http://www.w3.org/2000/svg"
   xmlns="http://www.w3.org/2000/svg"
   xmlns:sodipodi="http://sodipodi.sourceforge.net/DTD/sodipodi-0.dtd"
   xmlns:inkscape="http://www.inkscape.org/namespaces/inkscape"
   width="250"
   height="50"
   viewBox="0 0 66.145832 13.229167"
   version="1.1"
   id="svg8"
   inkscape:version="0.92.3 (2405546, 2018-03-11)"
   sodipodi:docname="logo.svg">
  <defs
     id="defs2" />
  <sodipodi:namedview
     id="base"
     pagecolor="#ffffff"
     bordercolor="#666666"
     borderopacity="1.0"
     inkscape:pageopacity="0.0"
     inkscape:pageshadow="2"
     inkscape:zoom="3.959798"
     inkscape:cx="119.13264"
     inkscape:cy="58.390022"
     inkscape:document-units="mm"
     inkscape:current-layer="text817"
     showgrid="false"
     units="px"
     inkscape:window-width="1680"
     inkscape:window-height="988"
     inkscape:window-x="-8"
     inkscape:window-y="-8"
     inkscape:window-maximized="1" />
  <metadata
     id="metadata5">
    <rdf:RDF>
      <cc:Work
         rdf:about="">
        <dc:format>image/svg+xml</dc:format>
        <dc:type
           rdf:resource="http://purl.org/dc/dcmitype/StillImage" />
        <dc:title></dc:title>
      </cc:Work>
    </rdf:RDF>
  </metadata>
  <g
     inkscape:label="Layer 1"
     inkscape:groupmode="layer"
     id="layer1"
     transform="translate(0,-283.77082)">
    <g
       aria-label="EARN   WALL"
       style="font-style:normal;font-variant:normal;font-weight:normal;font-stretch:normal;font-size:13.47044945px;line-height:1.25;font-family:HelvLight;-inkscape-font-specification:HelvLight;letter-spacing:0px;word-spacing:0px;fill:#000000;fill-opacity:1;stroke:none;stroke-width:0.33676124"
       id="text817"
       transform="translate(0,23.812509)">
      <path
         d="M 0.62441684,271.38822 H 5.9317739 v -1.29317 H 2.1600481 v -3.07126 h 3.448435 v -1.29316 h -3.448435 v -2.66715 h 3.6639622 v -1.29317 H 0.62441684 Z"
         style="font-style:normal;font-variant:normal;font-weight:500;font-stretch:condensed;font-family:'Helvetica Neue';-inkscape-font-specification:'Helvetica Neue Medium Condensed';fill:#ffffff;stroke-width:0.33676124"
         id="path833"
         inkscape:connector-curvature="0" />
      <path
         d="m 8.6860597,267.80508 1.1449882,-4.7416 h 0.026941 l 1.1045771,4.7416 z m -2.5055036,3.58314 h 1.6029835 l 0.6196407,-2.35733 h 2.8153237 l 0.5927,2.35733 h 1.602983 l -2.532444,-9.61791 H 8.9150573 Z"
         style="font-style:normal;font-variant:normal;font-weight:500;font-stretch:condensed;font-family:'Helvetica Neue';-inkscape-font-specification:'Helvetica Neue Medium Condensed';fill:#ffffff;stroke-width:0.33676124"
         id="path835"
         inkscape:connector-curvature="0" />
      <path
         d="m 14.094866,271.38822 h 1.535632 v -4.17584 h 1.252751 c 1.050695,0 1.373986,0.45799 1.400927,1.50869 0.02694,0.70046 0.01347,1.23928 0.06735,1.81851 0.04041,0.37717 0.107764,0.67352 0.255939,0.84864 h 1.737688 c -0.202057,-0.13471 -0.431055,-0.36371 -0.457995,-0.83517 -0.02694,-0.57923 -0.04041,-1.33358 -0.05388,-1.95322 -0.05388,-1.34704 -0.552289,-1.87239 -1.508691,-1.96668 v -0.0269 c 1.050695,-0.16165 1.602984,-1.11805 1.602984,-2.35733 0,-1.80504 -1.091107,-2.47857 -2.438151,-2.47857 h -3.394554 z m 1.535632,-5.3343 v -3.12515 h 1.306633 c 1.010284,0 1.454809,0.53882 1.454809,1.56258 0,0.96987 -0.552289,1.56257 -1.535632,1.56257 z"
         style="font-style:normal;font-variant:normal;font-weight:500;font-stretch:condensed;font-family:'Helvetica Neue';-inkscape-font-specification:'Helvetica Neue Medium Condensed';fill:#ffffff;stroke-width:0.33676124"
         id="path837"
         inkscape:connector-curvature="0" />
      <path
         d="m 21.329972,271.38822 h 1.454808 v -7.35487 h 0.02694 l 2.788383,7.35487 h 1.872393 v -9.61791 h -1.454809 v 7.16628 h -0.02694 l -2.788383,-7.16628 h -1.872392 z"
         style="font-style:normal;font-variant:normal;font-weight:500;font-stretch:condensed;font-family:'Helvetica Neue';-inkscape-font-specification:'Helvetica Neue Medium Condensed';fill:#ffffff;stroke-width:0.33676124"
         id="path839"
         inkscape:connector-curvature="0" />
      <path
         d="m 39.418258,271.38822 h 1.7781 l 1.225811,-7.24711 h 0.02694 l 1.239282,7.24711 h 1.778099 l 1.912804,-9.61791 h -1.522161 l -1.252752,7.51652 h -0.02694 l -1.293163,-7.51652 h -1.616454 l -1.266222,7.4761 h -0.02694 l -1.266222,-7.4761 h -1.549102 z"
         style="font-style:normal;font-variant:normal;font-weight:500;font-stretch:condensed;font-family:'Helvetica Neue';-inkscape-font-specification:'Helvetica Neue Medium Condensed';fill:#ffffff;stroke-width:0.33676124"
         id="path841"
         inkscape:connector-curvature="0" />
      <path
         d="m 49.439432,267.80508 1.144988,-4.7416 h 0.02694 l 1.104577,4.7416 z m -2.505504,3.58314 h 1.602984 l 0.61964,-2.35733 h 2.815324 l 0.5927,2.35733 h 1.602984 l -2.532445,-9.61791 H 49.66843 Z"
         style="font-style:normal;font-variant:normal;font-weight:500;font-stretch:condensed;font-family:'Helvetica Neue';-inkscape-font-specification:'Helvetica Neue Medium Condensed';fill:#ffffff;stroke-width:0.33676124"
         id="path843"
         inkscape:connector-curvature="0" />
      <path
         d="m 54.673121,271.38822 h 5.253475 v -1.29317 h -3.717844 v -8.32474 h -1.535631 z"
         style="font-style:normal;font-variant:normal;font-weight:500;font-stretch:condensed;font-family:'Helvetica Neue';-inkscape-font-specification:'Helvetica Neue Medium Condensed';fill:#ffffff;stroke-width:0.33676124"
         id="path845"
         inkscape:connector-curvature="0" />
      <path
         d="m 60.645373,271.38822 h 5.253475 v -1.29317 h -3.717844 v -8.32474 h -1.535631 z"
         style="font-style:normal;font-variant:normal;font-weight:500;font-stretch:condensed;font-family:'Helvetica Neue';-inkscape-font-specification:'Helvetica Neue Medium Condensed';fill:#ffffff;stroke-width:0.33676124"
         id="path847"
         inkscape:connector-curvature="0" />
    </g>
    <g
       style="fill:#ffffff;stroke:none"
       id="layer101"
       transform="matrix(0.01267105,0,0,0.01267105,27.834362,285.36132)">
      <path
         style="fill:#ffffff;stroke-width:1.1364553"
         inkscape:connector-curvature="0"
         id="path842"
         d="M 165.66487,398.68191 C 82.70364,189.57414 17.925685,14.560022 21.335051,10.0142 25.880872,6.604835 161.11905,27.061031 321.35925,55.472412 l 293.20546,53.413408 76.14251,76.14249 75.00604,77.27897 -211.38068,257.97535 C 437.27769,662.33954 336.13317,778.25797 329.31443,778.25797 322.49571,779.39443 249.76255,607.78968 165.66487,398.68191 Z m 177.28702,76.14251 C 353.18,391.86318 359.99873,322.5394 357.72581,320.26649 355.4529,319.13003 309.99469,281.62702 256.5813,238.44172 105.43274,114.56809 115.66084,120.25037 133.84412,165.70857 c 9.09165,21.59267 54.54986,135.23818 101.14453,252.29308 46.59465,115.91843 85.23414,210.24423 86.3706,209.10777 1.13646,-1.13645 11.36455,-69.32377 21.59264,-152.285 z m 178.42348,-7.9552 c 72.73314,-87.50705 129.55591,-160.24019 128.41946,-162.51309 -3.40937,-3.40938 -225.01815,34.09365 -231.83687,38.63946 -5.68229,3.40937 -35.23013,228.42752 -36.36658,264.79409 0,14.77392 2.27291,25.00202 4.54583,22.72911 2.2729,-2.27291 63.64149,-76.14251 135.23816,-163.64957 z M 589.56269,256.625 667.97811,241.85108 633.88445,207.75742 c -38.63948,-38.63948 -42.04885,-37.50303 -127.28299,37.50303 -29.54784,26.13847 -34.09367,34.09367 -17.04684,29.54784 12.50102,-2.27291 57.95923,-11.36456 100.00807,-18.18329 z m -127.283,-47.73112 c 38.6395,-32.95721 65.91442,-60.23214 60.23214,-62.50504 -37.50302,-9.09165 -338.66366,-60.232134 -345.48241,-57.959219 -9.09164,3.409357 192.06095,177.287019 206.83487,178.423479 3.40936,1.13645 38.63949,-25.00202 78.4154,-57.95922 z" />
    </g>
  </g>
</svg>
