<?xml version="1.0" encoding="UTF-8" standalone="no"?>
<!-- Generator: Adobe Illustrator 18.0.0, SVG Export Plug-In . SVG Version: 6.00 Build 0)  -->

<svg
   xmlns:dc="http://purl.org/dc/elements/1.1/"
   xmlns:cc="http://creativecommons.org/ns#"
   xmlns:rdf="http://www.w3.org/1999/02/22-rdf-syntax-ns#"
   xmlns:svg="http://www.w3.org/2000/svg"
   xmlns="http://www.w3.org/2000/svg"
   xmlns:xlink="http://www.w3.org/1999/xlink"
   xmlns:sodipodi="http://sodipodi.sourceforge.net/DTD/sodipodi-0.dtd"
   xmlns:inkscape="http://www.inkscape.org/namespaces/inkscape"
   version="1.1"
   id="Capa_1"
   x="0px"
   y="0px"
   viewBox="0 0 350 350"
   style="enable-background:new 0 0 350 350;"
   xml:space="preserve"
   width="512px"
   height="512px"
   sodipodi:docname="user.svg"
   inkscape:version="0.92.3 (2405546, 2018-03-11)"><metadata
   id="metadata907"><rdf:RDF><cc:Work
       rdf:about=""><dc:format>image/svg+xml</dc:format><dc:type
         rdf:resource="http://purl.org/dc/dcmitype/StillImage" /></cc:Work></rdf:RDF></metadata><defs
   id="defs905"><linearGradient
     inkscape:collect="always"
     id="linearGradient923"><stop
       style="stop-color:#00ff00;stop-opacity:1;"
       offset="0"
       id="stop919" /><stop
       style="stop-color:#00ff00;stop-opacity:0;"
       offset="1"
       id="stop921" /></linearGradient><linearGradient
     inkscape:collect="always"
     xlink:href="#linearGradient923"
     id="linearGradient925"
     x1="41.895144"
     y1="175"
     x2="308.10516"
     y2="175"
     gradientUnits="userSpaceOnUse" /></defs><sodipodi:namedview
   pagecolor="#ffffff"
   bordercolor="#666666"
   borderopacity="1"
   objecttolerance="10"
   gridtolerance="10"
   guidetolerance="10"
   inkscape:pageopacity="0"
   inkscape:pageshadow="2"
   inkscape:window-width="1680"
   inkscape:window-height="988"
   id="namedview903"
   showgrid="false"
   inkscape:zoom="1.5410156"
   inkscape:cx="256"
   inkscape:cy="281.95691"
   inkscape:window-x="-8"
   inkscape:window-y="-8"
   inkscape:window-maximized="1"
   inkscape:current-layer="g870" />
<g
   id="g870"
   style="fill-opacity:1;fill:#00ff00">
	<path
   d="M175,171.173c38.914,0,70.463-38.318,70.463-85.586C245.463,38.318,235.105,0,175,0s-70.465,38.318-70.465,85.587   C104.535,132.855,136.084,171.173,175,171.173z"
   fill="#FFFFFF"
   id="path862"
   style="fill-opacity:1;fill:#ffffff" />
	<path
   d="M41.909,301.853C41.897,298.971,41.885,301.041,41.909,301.853L41.909,301.853z"
   fill="#FFFFFF"
   id="path864"
   style="fill-opacity:1;fill:#00ff00" />
	<path
   d="M308.085,304.104C308.123,303.315,308.098,298.63,308.085,304.104L308.085,304.104z"
   fill="#FFFFFF"
   id="path866"
   style="fill-opacity:1;fill:#00ff00" />
	<path
   d="M307.935,298.397c-1.305-82.342-12.059-105.805-94.352-120.657c0,0-11.584,14.761-38.584,14.761   s-38.586-14.761-38.586-14.761c-81.395,14.69-92.803,37.805-94.303,117.982c-0.123,6.547-0.18,6.891-0.202,6.131   c0.005,1.424,0.011,4.058,0.011,8.651c0,0,19.592,39.496,133.08,39.496c113.486,0,133.08-39.496,133.08-39.496   c0-2.951,0.002-5.003,0.005-6.399C308.062,304.575,308.018,303.664,307.935,298.397z"
   fill="#FFFFFF"
   id="path868"
   style="fill-opacity:1;fill:#ffffff" />
</g>
<g
   id="g872">
</g>
<g
   id="g874">
</g>
<g
   id="g876">
</g>
<g
   id="g878">
</g>
<g
   id="g880">
</g>
<g
   id="g882">
</g>
<g
   id="g884">
</g>
<g
   id="g886">
</g>
<g
   id="g888">
</g>
<g
   id="g890">
</g>
<g
   id="g892">
</g>
<g
   id="g894">
</g>
<g
   id="g896">
</g>
<g
   id="g898">
</g>
<g
   id="g900">
</g>
</svg>